<svg width="122" height="38" viewBox="0 0 122 38" fill="none" xmlns="http://www.w3.org/2000/svg">
<rect width="38" height="38" rx="10" fill="url(#paint0_linear_1036_9844)"/>
<path d="M22.3333 24L27.3333 19L22.3333 14" stroke="white" stroke-width="1.83333" stroke-linecap="round" stroke-linejoin="round"/>
<path d="M15.6667 14L10.6667 19L15.6667 24" stroke="white" stroke-width="1.83333" stroke-linecap="round" stroke-linejoin="round"/>
<path d="M59.686 25.86C58.45 25.86 57.388 25.656 56.5 25.248C55.612 24.828 54.886 24.282 54.322 23.61C53.758 22.938 53.344 22.206 53.08 21.414C52.816 20.622 52.684 19.848 52.684 19.092V18.696C52.684 17.88 52.822 17.076 53.098 16.284C53.374 15.48 53.788 14.754 54.34 14.106C54.904 13.458 55.606 12.942 56.446 12.558C57.286 12.162 58.27 11.964 59.398 11.964C60.61 11.964 61.678 12.186 62.602 12.63C63.538 13.074 64.288 13.692 64.852 14.484C65.416 15.264 65.746 16.17 65.842 17.202H62.494C62.422 16.806 62.248 16.452 61.972 16.14C61.696 15.816 61.336 15.564 60.892 15.384C60.46 15.192 59.962 15.096 59.398 15.096C58.858 15.096 58.378 15.192 57.958 15.384C57.55 15.564 57.202 15.828 56.914 16.176C56.638 16.512 56.428 16.914 56.284 17.382C56.14 17.85 56.068 18.36 56.068 18.912C56.068 19.464 56.146 19.98 56.302 20.46C56.458 20.928 56.686 21.342 56.986 21.702C57.286 22.05 57.664 22.32 58.12 22.512C58.576 22.704 59.098 22.8 59.686 22.8C60.43 22.8 61.072 22.644 61.612 22.332C62.152 22.02 62.53 21.606 62.746 21.09L62.494 23.07V20.208H65.554V22.908C65.002 23.856 64.216 24.588 63.196 25.104C62.188 25.608 61.018 25.86 59.686 25.86ZM59.326 20.856V18.516H66.634V20.856H59.326ZM74.015 25.86C72.815 25.86 71.771 25.656 70.883 25.248C69.995 24.828 69.257 24.282 68.669 23.61C68.081 22.926 67.643 22.188 67.355 21.396C67.067 20.604 66.923 19.836 66.923 19.092V18.696C66.923 17.868 67.073 17.058 67.373 16.266C67.673 15.462 68.123 14.736 68.723 14.088C69.323 13.44 70.061 12.924 70.937 12.54C71.825 12.156 72.851 11.964 74.015 11.964C75.167 11.964 76.181 12.156 77.057 12.54C77.945 12.924 78.689 13.44 79.289 14.088C79.889 14.736 80.339 15.462 80.639 16.266C80.951 17.058 81.107 17.868 81.107 18.696V19.092C81.107 19.836 80.957 20.604 80.657 21.396C80.369 22.188 79.931 22.926 79.343 23.61C78.755 24.282 78.017 24.828 77.129 25.248C76.241 25.656 75.203 25.86 74.015 25.86ZM74.015 22.728C74.591 22.728 75.107 22.632 75.563 22.44C76.019 22.248 76.409 21.978 76.733 21.63C77.057 21.282 77.303 20.88 77.471 20.424C77.639 19.956 77.723 19.452 77.723 18.912C77.723 18.336 77.633 17.814 77.453 17.346C77.285 16.878 77.039 16.476 76.715 16.14C76.391 15.804 76.001 15.546 75.545 15.366C75.089 15.186 74.579 15.096 74.015 15.096C73.439 15.096 72.923 15.186 72.467 15.366C72.011 15.546 71.621 15.804 71.297 16.14C70.973 16.476 70.727 16.878 70.559 17.346C70.391 17.814 70.307 18.336 70.307 18.912C70.307 19.452 70.391 19.956 70.559 20.424C70.727 20.88 70.973 21.282 71.297 21.63C71.621 21.978 72.011 22.248 72.467 22.44C72.923 22.632 73.439 22.728 74.015 22.728Z" fill="#56C16A"/>
<path d="M81.1804 25.5V21.936H84.7084V25.5H81.1804ZM89.035 25.572V22.44H91.195C91.759 22.44 92.263 22.362 92.707 22.206C93.163 22.038 93.547 21.804 93.859 21.504C94.171 21.192 94.411 20.82 94.579 20.388C94.747 19.944 94.831 19.446 94.831 18.894C94.831 18.318 94.747 17.814 94.579 17.382C94.411 16.938 94.171 16.572 93.859 16.284C93.547 15.984 93.163 15.762 92.707 15.618C92.263 15.462 91.759 15.384 91.195 15.384H89.035V12.252H91.051C92.239 12.252 93.277 12.42 94.165 12.756C95.065 13.092 95.815 13.56 96.415 14.16C97.015 14.748 97.465 15.432 97.765 16.212C98.065 16.992 98.215 17.82 98.215 18.696V19.092C98.215 19.896 98.065 20.688 97.765 21.468C97.465 22.236 97.015 22.932 96.415 23.556C95.815 24.168 95.065 24.66 94.165 25.032C93.277 25.392 92.239 25.572 91.051 25.572H89.035ZM86.047 25.572V12.252H89.395V25.572H86.047ZM99.3368 25.5V12.36H102.577V25.5H99.3368ZM102.217 25.5V22.764H107.761V25.5H102.217ZM102.217 20.19V17.454H107.383V20.19H102.217ZM102.217 15.096V12.36H107.653V15.096H102.217ZM112.113 25.5L108.297 12.36H111.753L114.615 23.142L113.985 22.836H115.713L115.065 23.142L117.729 12.36H121.077L117.513 25.5H112.113Z" fill="#1C472C"/>
<defs>
<linearGradient id="paint0_linear_1036_9844" x1="0" y1="0" x2="38" y2="38" gradientUnits="userSpaceOnUse">
<stop stop-color="#1C472C"/>
<stop offset="1" stop-color="#56C16A"/>
</linearGradient>
</defs>
</svg>
