<svg width="797" height="186" viewBox="0 0 797 186" fill="none" xmlns="http://www.w3.org/2000/svg">
<path d="M154.46 92.7405H193.416L150.64 32.9785L131.161 60.1905L154.46 92.7405Z" fill="#1C472C"/>
<path d="M38.957 92.7405L81.734 32.9785H111.683L131.337 5.52051H130.985H62.432L0 92.7405H38.957Z" fill="#1C472C"/>
<path d="M68.906 92.7407L111.683 152.503L131.161 125.291L107.862 92.7407H68.906Z" fill="#1C472C"/>
<path d="M223.366 92.7407L180.589 152.504H150.64L150.639 152.503L130.985 179.962H131.337H133.244H199.891L262.322 92.7407H223.366Z" fill="#1C472C"/>
<path d="M199.891 5.52051H131.378H131.337L68.906 92.7405H107.862L150.64 32.9785H180.589L223.366 92.7405H262.322L199.891 5.52051Z" fill="#56C16A"/>
<path d="M193.416 92.7407H154.46L111.683 152.503V152.504H81.734L38.956 92.7407H38.957H0L62.431 179.962H130.944H130.985L193.416 92.7407Z" fill="#56C16A"/>
<path d="M303.322 2.87988H321.752L340.375 37.0539L359.094 2.87988H377.332V69.1149H362.453V24.9579L344.503 57.9799H336.056L318.202 24.9579V69.1149H303.323L303.322 2.87988Z" fill="black"/>
<path d="M386.456 44.6368C386.456 30.0458 396.632 19.0068 410.071 19.0068C416.022 19.0068 421.11 21.2148 424.853 25.0548V20.1588H438.868V69.1148H424.853V64.2188C421.11 68.0588 416.022 70.2668 410.071 70.2668C396.632 70.2668 386.456 59.2268 386.456 44.6358V44.6368ZM424.854 44.6368C424.854 37.7258 419.767 32.5418 412.855 32.5418C406.04 32.5418 400.952 37.7258 400.952 44.6368C400.952 51.5478 406.04 56.7328 412.855 56.7328C419.767 56.7328 424.854 51.5488 424.854 44.6368Z" fill="black"/>
<path d="M450.007 20.1588H464.023V24.9578C467.863 21.0218 472.854 19.0068 478.902 19.0068C490.132 19.0068 497.621 26.3988 497.621 37.6298V69.1148H483.605V42.3328C483.605 36.3818 479.861 32.5418 474.198 32.5418C468.15 32.5418 464.023 36.4778 464.023 42.5248V69.1148H450.007V20.1588Z" fill="black"/>
<path d="M507.318 51.8372V20.1592H521.333V47.6122C521.333 53.0842 524.789 56.7322 530.068 56.7322C535.732 56.7322 539.572 52.9882 539.572 47.4202V20.1582H553.587V69.1142H539.572V64.3142C535.924 68.2502 531.125 70.2662 525.365 70.2662C514.517 70.2662 507.318 62.9702 507.318 51.8352V51.8372Z" fill="black"/>
<path d="M562.038 44.6368C562.038 30.0458 572.213 19.0068 585.652 19.0068C591.603 19.0068 596.691 21.2148 600.435 25.0548V20.1588H614.45V69.1148H600.435V64.2188C596.691 68.0588 591.603 70.2668 585.652 70.2668C572.213 70.2668 562.038 59.2268 562.038 44.6358V44.6368ZM600.435 44.6368C600.435 37.7258 595.347 32.5418 588.435 32.5418C581.621 32.5418 576.533 37.7258 576.533 44.6368C576.533 51.5478 581.621 56.7328 588.435 56.7328C595.347 56.7328 600.435 51.5488 600.435 44.6368Z" fill="black"/>
<path d="M625.781 0H639.795V69.115H625.781V0Z" fill="black"/>
<path d="M303.322 99.855H318.201V166.09H303.322V99.855Z" fill="black"/>
<path d="M330.104 117.135H344.119V121.934C347.959 117.998 352.951 115.983 358.998 115.983C370.23 115.983 377.717 123.375 377.717 134.606V166.091H363.702V139.309C363.702 133.358 359.959 129.518 354.295 129.518C348.248 129.518 344.119 133.454 344.119 139.501V166.091H330.104V117.135Z" fill="black"/>
<path d="M391.064 150.156V129.901H383.768V117.134H387.8C390.488 117.134 391.831 115.789 391.831 113.102V104.271H405.078V117.134H415.733V129.901H405.078V147.852C405.078 151.307 407.19 153.324 410.837 153.324H415.733V166.091H408.725C397.11 166.091 391.063 160.619 391.063 150.156H391.064Z" fill="black"/>
<path d="M421.591 141.612C421.591 127.021 432.918 115.982 447.989 115.982C462.964 115.982 474.386 126.925 474.386 141.9C474.386 143.244 474.29 144.876 474.002 146.124H436.564C438.1 151.691 442.612 155.243 448.467 155.243C452.979 155.243 456.626 153.324 458.642 150.636H473.617C469.971 160.524 460.179 167.243 448.084 167.243C432.917 167.243 421.591 156.203 421.591 141.612ZM436.662 136.812H459.413C457.973 131.437 453.557 127.981 447.99 127.981C442.423 127.981 438.198 131.437 436.662 136.812Z" fill="black"/>
<path d="M482.646 96.9751H496.661V166.09H482.646V96.9751Z" fill="black"/>
<path d="M506.549 102.447C506.549 97.5508 510.292 93.9038 515.189 93.9038C520.18 93.9038 523.923 97.5508 523.923 102.447C523.923 107.439 520.18 111.087 515.189 111.087C510.293 111.087 506.549 107.44 506.549 102.447ZM508.181 117.135H522.196V166.091H508.181V117.135Z" fill="black"/>
<path d="M530.932 140.364C530.932 126.445 541.011 115.982 554.546 115.982C560.497 115.982 565.585 118.094 569.329 121.742V117.135H583.345V160.812C583.345 175.691 573.265 185.482 558.098 185.482C545.331 185.482 535.444 178.667 533.524 167.819H548.019C549.458 171.083 553.491 173.291 558.29 173.291C565.009 173.291 569.329 168.876 569.329 161.484V158.988C565.585 162.635 560.497 164.748 554.546 164.748C541.011 164.748 530.932 154.187 530.932 140.364ZM569.33 140.364C569.33 133.837 564.146 128.941 557.331 128.941C550.42 128.941 545.332 133.837 545.332 140.364C545.332 146.796 550.42 151.788 557.331 151.788C564.146 151.788 569.33 146.796 569.33 140.364Z" fill="black"/>
<path d="M591.412 141.612C591.412 127.021 602.74 115.982 617.81 115.982C632.785 115.982 644.208 126.925 644.208 141.9C644.208 143.244 644.112 144.876 643.823 146.124H606.385C607.922 151.691 612.434 155.243 618.289 155.243C622.801 155.243 626.447 153.324 628.464 150.636H643.439C639.792 160.524 630.001 167.243 617.905 167.243C602.739 167.243 591.411 156.203 591.411 141.612H591.412ZM606.483 136.812H629.234C627.794 131.437 623.378 127.981 617.81 127.981C612.242 127.981 608.019 131.437 606.483 136.812Z" fill="black"/>
<path d="M652.275 117.135H666.29V121.934C670.13 117.998 675.121 115.983 681.169 115.983C692.4 115.983 699.888 123.375 699.888 134.606V166.091H685.873V139.309C685.873 133.358 682.129 129.518 676.465 129.518C670.418 129.518 666.29 133.454 666.29 139.501V166.091H652.275V117.135Z" fill="black"/>
<path d="M713.234 150.156V129.901H705.939V117.134H709.97C712.658 117.134 714.001 115.789 714.001 113.102V104.271H727.249V117.134H737.903V129.901H727.249V147.852C727.249 151.307 729.36 153.324 733.008 153.324H737.904V166.091H730.897C719.282 166.091 713.234 160.619 713.234 150.156Z" fill="black"/>
<path d="M743.761 141.612C743.761 127.021 755.088 115.982 770.159 115.982C785.134 115.982 796.557 126.925 796.557 141.9C796.557 143.244 796.46 144.876 796.172 146.124H758.735C760.27 151.691 764.782 155.243 770.637 155.243C775.149 155.243 778.797 153.324 780.813 150.636H795.788C792.141 160.524 782.35 167.243 770.254 167.243C755.087 167.243 743.76 156.203 743.76 141.612H743.761ZM758.832 136.812H781.582C780.143 131.437 775.727 127.981 770.159 127.981C764.591 127.981 760.368 131.437 758.832 136.812Z" fill="black"/>
</svg>
