<svg width="263" height="186" viewBox="0 0 263 186" fill="none" xmlns="http://www.w3.org/2000/svg">
<path d="M154.46 92.7405H193.416L150.64 32.9785L131.161 60.1905L154.46 92.7405Z" fill="#1C472C"/>
<path d="M38.957 92.7405L81.734 32.9785H111.683L131.337 5.52051H130.985H62.432L0 92.7405H38.957Z" fill="#1C472C"/>
<path d="M68.906 92.7407L111.683 152.503L131.161 125.291L107.862 92.7407H68.906Z" fill="#1C472C"/>
<path d="M223.366 92.7407L180.589 152.504H150.64L150.639 152.503L130.985 179.962H131.337H133.244H199.891L262.322 92.7407H223.366Z" fill="#1C472C"/>
<path d="M199.891 5.52051H131.378H131.337L68.906 92.7405H107.862L150.64 32.9785H180.589L223.366 92.7405H262.322L199.891 5.52051Z" fill="#56C16A"/>
<path d="M193.416 92.7407H154.46L111.683 152.503V152.504H81.734L38.956 92.7407H38.957H0L62.431 179.962H130.944H130.985L193.416 92.7407Z" fill="#56C16A"/>
</svg>
