<svg width="200" height="70" viewBox="0 0 200 70" fill="none" xmlns="http://www.w3.org/2000/svg">
<path d="M27.4269 63.692C26.4408 63.692 25.6386 62.8898 25.6386 61.9037V60.0204C25.6386 59.0343 26.4408 58.2321 27.4269 58.2321H29.3102C30.2963 58.2321 31.0985 59.0343 31.0985 60.0204V61.9037C31.0985 62.8898 30.2963 63.692 29.3102 63.692H27.4269ZM39.6116 53.4867C37.6411 53.4867 36.0381 51.8836 36.0381 49.9131V46.1498C36.0381 44.1793 37.6411 42.5763 39.6116 42.5763H43.375C45.3455 42.5763 46.9485 44.1793 46.9485 46.1498V49.9131C46.9485 51.8836 45.3455 53.4867 43.375 53.4867H39.6116ZM1.78831 37.5373C0.80225 37.5373 0 36.735 0 35.749V33.8657C0 32.8796 0.80225 32.0774 1.78831 32.0774H3.67163C4.65769 32.0774 5.45993 32.8796 5.45993 33.8657V35.749C5.45993 36.735 4.65769 37.5373 3.67163 37.5373H1.78831ZM53.79 37.5231C52.8039 37.5231 52.0017 36.7208 52.0017 35.7348V33.8515C52.0017 32.8654 52.8039 32.0632 53.79 32.0632H55.6733C56.6594 32.0632 57.4616 32.8654 57.4616 33.8515V35.7348C57.4616 36.7208 56.6594 37.5231 55.6733 37.5231H53.79ZM13.9059 27.2047C11.9354 27.2047 10.3324 25.6017 10.3324 23.6312V19.8679C10.3324 17.8974 11.9354 16.2943 13.9059 16.2943H17.6693C19.6397 16.2943 21.2428 17.8974 21.2428 19.8679V23.6312C21.2428 25.6017 19.6397 27.2047 17.6693 27.2047H13.9059ZM27.4269 11.768C26.4408 11.768 25.6386 10.9658 25.6386 9.97973V8.09641C25.6386 7.11035 26.4408 6.30811 27.4269 6.30811H29.3102C30.2963 6.30811 31.0985 7.11035 31.0985 8.09641V9.97973C31.0985 10.9658 30.2963 11.768 29.3102 11.768H27.4269Z" fill="#3ACC75"/>
<path d="M13.9056 53.4865C11.9351 53.4865 10.332 51.8835 10.332 49.913V46.1497C10.332 44.1792 11.9351 42.5761 13.9056 42.5761H17.4653C18.9622 42.5761 20.3936 41.9615 21.4244 40.8759C22.4553 39.7903 22.9953 38.3292 22.9179 36.8341C22.9146 36.7711 22.913 36.7071 22.913 36.6437V32.8804C22.913 30.9099 24.516 29.3068 26.4865 29.3068H30.2499C30.2941 29.3068 30.3381 29.3076 30.382 29.3092C30.4482 29.3118 30.5147 29.3129 30.5807 29.3129C32.0147 29.3129 33.3942 28.7483 34.418 27.7368C35.489 26.6786 36.0754 25.225 36.0389 23.7199C36.0381 23.6904 36.0378 23.6607 36.0378 23.6311V19.8677C36.0378 17.8972 37.6408 16.2942 39.6113 16.2942H43.3746C45.3451 16.2942 46.9482 17.8972 46.9482 19.8677V23.6311C46.9482 25.6016 45.3451 27.2046 43.3746 27.2046H39.6113C39.5672 27.2046 39.5234 27.2039 39.4799 27.2022C39.4135 27.1999 39.3468 27.1986 39.2806 27.1986C37.8466 27.1986 36.4671 27.7631 35.4432 28.7747C34.3721 29.833 33.7855 31.287 33.8225 32.7923C33.8232 32.8216 33.8236 32.8509 33.8236 32.8804V36.6437C33.8236 38.6142 32.2205 40.2173 30.2501 40.2173H26.6904C25.1934 40.2173 23.762 40.8319 22.7312 41.9175C21.7003 43.0031 21.1604 44.4642 21.2377 45.9593C21.241 46.0223 21.2426 46.0863 21.2426 46.1497V49.913C21.2426 51.8835 19.6396 53.4865 17.6691 53.4865H13.9057H13.9056Z" fill="#3ACC75"/>
<path d="M75.4943 27.0667H80.2177L87.0548 45.334H83.0882L81.5225 41.0281H74.1634L72.5977 45.334H68.6572L75.4943 27.0667ZM80.2439 37.4791L77.843 30.8247L75.4421 37.4791H80.2439Z" fill="#505050"/>
<path d="M88.2814 40.6105H92.0653C92.3524 41.7589 93.2136 42.5415 95.536 42.5415C97.18 42.5415 97.963 42.1502 97.963 41.3673C97.963 40.4016 96.8408 40.3235 94.6748 39.8014C90.6039 38.8359 88.9337 37.9226 88.9337 35.4434C88.9337 32.4162 91.4389 30.668 95.2228 30.668C99.2155 30.668 101.173 32.599 101.669 35.2607H97.8847C97.5977 34.3472 96.8148 33.7994 95.0923 33.7994C93.6049 33.7994 92.6914 34.2169 92.6914 34.9999C92.6914 35.6786 93.3439 35.8089 95.4316 36.2786C99.5287 37.2179 101.825 38.0008 101.825 40.8713C101.825 44.0812 98.9807 45.6469 95.4316 45.6469C91.5954 45.6469 88.8032 43.768 88.2812 40.6103L88.2814 40.6105Z" fill="#505050"/>
<path d="M103.47 40.6105H107.254C107.541 41.7589 108.402 42.5415 110.725 42.5415C112.369 42.5415 113.151 42.1502 113.151 41.3673C113.151 40.4016 112.029 40.3235 109.863 39.8014C105.792 38.8359 104.122 37.9226 104.122 35.4434C104.122 32.4162 106.627 30.668 110.411 30.668C114.404 30.668 116.361 32.599 116.857 35.2607H113.073C112.786 34.3472 112.003 33.7994 110.281 33.7994C108.793 33.7994 107.88 34.2169 107.88 34.9999C107.88 35.6786 108.532 35.8089 110.62 36.2786C114.717 37.2179 117.014 38.0008 117.014 40.8713C117.014 44.0812 114.169 45.6469 110.62 45.6469C106.784 45.6469 103.992 43.768 103.47 40.6103L103.47 40.6105Z" fill="#505050"/>
<path d="M123.643 26.5449C123.643 27.8235 122.677 28.7631 121.321 28.7631C120.016 28.7631 118.998 27.8237 118.998 26.5449C118.998 25.2662 120.016 24.3528 121.321 24.3528C122.677 24.3528 123.643 25.2662 123.643 26.5449ZM119.442 30.9813H123.173V45.334H119.442V30.9813Z" fill="#505050"/>
<path d="M126.174 30.9812H129.906V32.9384C130.949 31.4769 132.385 30.668 134.368 30.668C137.604 30.668 139.561 32.8077 139.561 36.3307V45.3339H135.829V37.1398C135.829 35.2609 135.125 34.2169 133.141 34.2169C131.028 34.2169 129.906 35.4434 129.906 37.7923V45.3339H126.174V30.9812Z" fill="#505050"/>
<path d="M142.066 38.1576C142.066 33.7212 144.911 30.6682 148.59 30.6682C150.626 30.6682 152.139 31.6075 153.131 32.9907V30.9814H156.863L156.837 45.3341H153.105L153.131 43.4031C152.113 44.7601 150.626 45.6474 148.617 45.6474C144.859 45.6474 142.066 42.568 142.066 38.1578V38.1576ZM153.131 38.1576C153.131 35.8091 151.539 34.2172 149.452 34.2172C147.364 34.2172 145.824 35.8091 145.824 38.1576C145.824 40.5325 147.39 42.098 149.452 42.098C151.539 42.098 153.131 40.5323 153.131 38.1576Z" fill="#505050"/>
<path d="M177.975 35.4174V45.3339H174.791V42.2545C173.956 44.2117 171.712 45.6472 168.632 45.6472C163.544 45.6472 159.551 41.7067 159.551 36.2264C159.551 30.7461 163.543 26.7534 168.998 26.7534C173.355 26.7534 176.748 29.3631 177.818 33.1208H173.825C172.964 31.3725 171.216 30.3026 168.972 30.3026C165.605 30.3026 163.309 32.7557 163.309 36.2786C163.309 39.5928 165.344 42.2025 168.919 42.2025C171.424 42.2025 173.486 40.8976 174.138 38.5491H167.98V35.4174H177.975Z" fill="#3ACC75"/>
<path d="M199.792 36.2004C199.792 41.5763 195.642 45.6472 190.267 45.6472C184.891 45.6472 180.768 41.5763 180.768 36.2004C180.768 30.8246 184.891 26.7537 190.267 26.7537C195.642 26.7537 199.792 30.8248 199.792 36.2004ZM184.525 36.2004C184.525 39.6191 186.978 42.0981 190.267 42.0981C193.555 42.0981 196.008 39.6191 196.008 36.2004C196.008 32.7818 193.555 30.3028 190.267 30.3028C186.978 30.3028 184.525 32.782 184.525 36.2004Z" fill="#3ACC75"/>
</svg>
